<svg enable-background="new 0 0 200.4 84.2" viewBox="0 0 200.4 84.2" xmlns="http://www.w3.org/2000/svg"><path clip-rule="evenodd" d="m41.4 50.3-1.1-16.6 2.8-1.1 7.3 15.9z" fill="#441b15" fill-rule="evenodd"/><path clip-rule="evenodd" d="m49.8 51-4.4 2.1-3.2-2 8.2-1.6z" fill="#441b15" fill-rule="evenodd"/><path clip-rule="evenodd" d="m37.6 60.9 3.6-9.4 3.7 2.4.3 5z" fill="#441b15" fill-rule="evenodd"/><path clip-rule="evenodd" d="m43.7 61.2-3.4-.1 4.3-1z" fill="#441b15" fill-rule="evenodd"/><path clip-rule="evenodd" d="m38.3 63.4-.7-1.4 6 .1.4 1.9z" fill="#441b15" fill-rule="evenodd"/><path clip-rule="evenodd" d="m40.2 68.2-1.7 14.7-7.7-5.5-6.1-20.3 3.8-14.2 11.7 3.7.3 4.2-4.1 10.8 1.3 2.6 5.8.7z" fill="#441b15" fill-rule="evenodd"/><path clip-rule="evenodd" d="m28.3 83.3-9.7-12.7-6.3-25.2 7.6-13.5 7.2 4.2.6 6.1-4 14.9 6.2 20.7.1.2 7.4 5.2z" fill="#441b15" fill-rule="evenodd"/><path clip-rule="evenodd" d="m20.2 30.6-.3-2.8 9.3-9 9.9 1.1-1.5 4z" fill="#441b15" fill-rule="evenodd"/><path clip-rule="evenodd" d="m40.2 45.6-11.6-3.7-.6-5.7 11.3-2.3z" fill="#441b15" fill-rule="evenodd"/><path clip-rule="evenodd" d="m39.4 33-11.8 2.3-6.8-3.9 8-3.1 8 2.3.2-.9-.8-.2.4-4.2 1.7-.7 1.7-4.6 2 .2z" fill="#441b15" fill-rule="evenodd"/><path clip-rule="evenodd" d="m43.2 7.5 2.2 13-2.5 11.2-2.5.9 2.7-12.9-8.1-16.4z" fill="#441b15" fill-rule="evenodd"/><path clip-rule="evenodd" d="m51.6 48.8-7.8-16.8 2.5-11.4.1-.1-2.4-13.6-9.9-5.1-34.1-1.8 3.6 14.2 15.4 13.6.3 3.4-7.9 14v.1l6.4 25.6v.1l10.1 13.2h11.3l1.9-15.6 4-3.9-.7-2.9 1.8-2.4-.4-5.4 4.7-2.3z" fill="#441b15" fill-rule="evenodd"/><path clip-rule="evenodd" d="m33.7 2.7 8.1 16.5-40.6-18.2zm11.5 56.2-5.4-3.7 1.4-3.7 3.7 2.4zm-24.4-27.5 18.6 1.6 2.6-12.8-2-.2-1.7 4.6-1.7.7-.4 4.2.9.3-.3.9-8-2.3zm24.6-10.9-2.5 11.2-2.5 1 2.7-12.9zm-4 29.8 9-1.8-10.1-14.8zm-16.7 6.8 15.6-10.5.3 4.2-4.2 10.8 1.4 2.6 5.8.7-12.8 12.5z" fill="#f6a300" fill-rule="evenodd"/><path clip-rule="evenodd" d="m40.3 61.1 4.2-1.1-.8 1.1zm-21.7 9.5 11.4 7.4 7.4 5.3h-9.1zm-6.3-25.2 11.4 11.6-8 1.7zm29.9 5.7 8.2-1.6-.6 1.5-4.4 2.1z" fill="#bb4c18" fill-rule="evenodd"/><path clip-rule="evenodd" d="m37.6 60.9 2.2-5.7 5.4 3.7zm-2.6-57.6 8.1 4.2 2.2 13-2.3-.8zm-6.2 14.5 13 1.4-40.6-18.2zm10.6 15.2-11.8 2.4-6.8-4zm-11.4 3.2 11.3-2.3.8 11.7-11.6-3.7zm12.3-2.5 2.8-1.1 7.3 15.9zm-9.5 43.7 9.4-9.2-1.7 14.7zm6.8-15.4.7 1.3 5.7.7-.4-1.9z" fill="#ffe700" fill-rule="evenodd"/><path clip-rule="evenodd" d="m24.7 57.1 15.6-10.5-11.8-3.7zm-23.5-56.1 27.6 16.9-9.4 9.1-15-13.3zm18.7 26.8 9.3-9 9.9 1.1-1.5 4-17.5 6.8zm-7.6 17.6 11.4 11.6 6.3 21-11.3-7.4-3-11.8 8-1.7 4-14.8-.6-6.1-7.1-4.2z" fill="#ed6c0b" fill-rule="evenodd"/><g fill="#441b15"><path clip-rule="evenodd" d="m200 35.9v-3.4l-.5 1.2-.6 1.3h-.3c0-.1-.1-.1-.1-.3-.1-.1-.1-.3-.2-.4s-.1-.3-.2-.4-.1-.2-.1-.3l-.5-1.2v3.4h-.4v-4.4h.4s0 .1.1.2c0 .1.1.2.1.3s.1.2.1.3c.1.1.1.2.1.3s.1.2.1.3.1.2.1.2l.5 1.2.5-1.2.7-1.6h.4v4.4h-.2zm-8.5 17.8-2.9.4v-13.8h3.2v-2.5h-3.2v-6.2h-2.9v6.2h-2v2.5h2v14.4c0 .6.3 1.2.7 1.6.4.3.9.5 1.4.5.1 0 3.6-.5 3.6-.5v-2.6zm-54.8-21.6v13.6l5.7-1.4v-12.2zm0 24.9h-2.9v-25.3c0-2.1 1.3-2.3 1.7-2.3h7.6c1.3 0 2.3 1 2.3 2.3v12.7c0 1.1-.8 2.2-1.9 2.4l-6.7 1.7v8.5zm29.2-22h-2.9v-3.4h2.9zm0 22h-2.9v-19.3h2.9zm-14.9-2.6h5.5v-14.1h-5.5zm6 2.5h-6.6c-1.2 0-2.2-1-2.2-2.2v-14.8c0-1.2 1-2.2 2.2-2.2h6.6c1.2 0 2.2 1 2.2 2.2v14.8c0 1.2-1 2.2-2.2 2.2zm23.7-18.6c-.5-.4-1.2-.5-1.8-.4l-6 1.5v-1.7h-2.9v19.3h2.9v-14.8l5.7-1.4v16.2h2.9v-17.1c0-.6-.3-1.2-.8-1.6zm-94.9 15.4-2.9.4v-13.8h3.2v-2.5h-3.2v-6.2h-2.9v6.2h-2v2.5h2v14.4c0 .6.3 1.2.7 1.6.4.3.9.5 1.4.5.1 0 3.6-.5 3.6-.5v-2.6zm35.4.6h5.7v-13.6l-5.7 1.4zm7 2.7h-7.6c-1.2 0-2.3-1-2.3-2.3v-12.7c0-1.1.8-2.2 1.9-2.4l6.7-1.7v-9.7h2.9v26.5c0 2.1-1.3 2.3-1.6 2.3zm-14.3-18.7c-.5-.4-1.2-.5-1.8-.4l-6 1.5v-1.7h-2.9v19.3h2.9v-14.8l5.7-1.4v16.2h2.9v-17.1c0-.6-.3-1.2-.8-1.6zm-22.8 16.1h5.9v-6.9l-5.9 1.5zm7 2.5h-7.6c-1.2 0-2.2-1-2.2-2.2v-5.8c0-1.1.8-2.1 1.8-2.4l6.8-1.7v-4.6h-6.8v-2.5h7.3c1.2 0 2.2 1 2.2 2.2v14.8c.1 2.1-1.1 2.2-1.5 2.2zm-24.4.1h-7.9v-2.7h7.2v-9.8l-6.4-1.8c-1-.3-1.8-1.4-1.8-2.4v-8.5c0-1.2 1-2.3 2.3-2.3h7.9v2.7h-7.2v8l6.4 1.8c1.1.3 1.8 1.3 1.8 2.4v10.3c0 1.3-1 2.3-2.3 2.3zm121.9-25.1v4h-.4v-4h-1v-.4h2.5v.4z" fill-rule="evenodd"/><path d="m89.2 70.2v-7h2.4c.5 0 1 0 1.2.1.4.1.7.3 1 .5.4.3.6.7.8 1.2s.3 1 .3 1.7c0 .5-.1 1-.2 1.4s-.3.8-.5 1c-.2.3-.4.5-.6.6-.2.2-.5.3-.8.4s-.7.1-1.1.1zm1-.8h1.5c.5 0 .8 0 1.1-.1s.5-.2.6-.4c.2-.2.4-.5.5-.9s.2-.8.2-1.4c0-.7-.1-1.3-.4-1.7-.2-.4-.5-.7-.9-.8-.2-.1-.6-.1-1.2-.1h-1.5v5.4z"/><path d="m99.7 68.6.9.1c-.1.5-.4.9-.8 1.2s-.9.4-1.5.4c-.7 0-1.3-.2-1.8-.7-.4-.5-.7-1.1-.7-1.9 0-.9.2-1.5.7-2 .4-.5 1-.7 1.7-.7s1.2.2 1.7.7c.4.5.6 1.1.6 2v.2h-3.8c0 .6.2 1 .5 1.3s.6.4 1.1.4c.3 0 .6-.1.8-.2.3-.2.4-.4.6-.8zm-2.8-1.4h2.8c0-.4-.1-.7-.3-1-.3-.3-.6-.5-1.1-.5-.4 0-.7.1-1 .4s-.4.7-.4 1.1z"/><path d="m101.3 68.7.8-.1c0 .3.2.6.4.8s.5.3.9.3.7-.1.9-.2c.2-.2.3-.4.3-.6s-.1-.3-.3-.5c-.1-.1-.4-.2-.9-.3-.6-.2-1.1-.3-1.3-.4s-.4-.3-.6-.5c-.1-.2-.2-.4-.2-.7 0-.2.1-.4.2-.6s.2-.4.4-.5c.1-.1.3-.2.5-.3s.5-.1.7-.1c.4 0 .7.1 1 .2s.5.3.7.5c.1.2.2.5.3.8l-.8.1c0-.3-.1-.5-.3-.6s-.4-.2-.8-.2-.7.1-.8.2c-.2.1-.3.3-.3.5 0 .1 0 .2.1.3s.2.2.3.2.3.1.8.2c.6.2 1 .3 1.3.4.2.1.4.3.6.5.1.2.2.4.2.7s-.1.6-.3.8c-.2.3-.4.4-.7.6-.3.1-.7.2-1.1.2-.7 0-1.2-.1-1.5-.4-.2-.3-.4-.7-.5-1.3z"/><path d="m106.5 64.2v-1h.9v1zm0 6v-5.1h.9v5.1z"/><path d="m108.6 70.7.8.1c0 .3.1.4.3.6s.5.2.9.2.7-.1.9-.2c.2-.2.4-.4.4-.7 0-.2.1-.5.1-1.1-.4.4-.8.7-1.4.7-.7 0-1.2-.3-1.6-.8s-.6-1.1-.6-1.8c0-.5.1-.9.3-1.3s.4-.7.8-.9c.3-.2.7-.3 1.2-.3.6 0 1.1.2 1.5.7v-.6h.8v4.4c0 .8-.1 1.4-.2 1.7-.2.3-.4.6-.8.8-.3.2-.8.3-1.3.3-.6 0-1.1-.1-1.5-.4-.5-.5-.7-.9-.6-1.4zm.7-3.1c0 .7.1 1.2.4 1.5s.6.5 1 .5.7-.2 1-.5.4-.8.4-1.4-.1-1.1-.4-1.4-.6-.5-1-.5-.7.2-1 .5c-.3.2-.4.7-.4 1.3z"/><path d="m114.2 70.2v-5.1h.8v.7c.4-.6.9-.8 1.6-.8.3 0 .6.1.8.2.3.1.4.3.6.4.1.2.2.4.3.6v.8 3.1h-.9v-3.1c0-.4 0-.6-.1-.8s-.2-.3-.4-.4-.4-.2-.6-.2c-.4 0-.7.1-.9.3-.3.2-.4.7-.4 1.3v2.8h-.8z"/><path d="m126.3 69.4c-.3.3-.6.6-.9.7-.3.2-.7.2-1.1.2-.7 0-1.3-.2-1.7-.7-.3-.4-.5-.8-.5-1.3 0-.4.1-.8.4-1.2s.7-.7 1.3-.9c-.3-.4-.5-.7-.6-.9s-.2-.4-.2-.7c0-.4.2-.8.5-1.1s.7-.5 1.2-.5.9.1 1.2.4.5.6.5 1.1c0 .7-.4 1.2-1.3 1.7l1.3 1.6c.1-.3.3-.6.3-1l.9.2c-.2.6-.4 1.1-.6 1.5.3.4.7.8 1.1 1.1l-.6.7c-.4-.1-.8-.5-1.2-.9zm-.5-.7-1.6-2c-.5.3-.8.5-.9.8-.2.2-.2.5-.2.7 0 .3.1.6.3.9s.5.5 1 .5c.3 0 .5-.1.8-.2.2-.2.4-.4.6-.7zm-1.2-2.9c.4-.2.6-.4.7-.6s.2-.3.2-.5-.1-.4-.2-.6-.3-.2-.6-.2c-.2 0-.4.1-.6.2s-.2.3-.2.6c0 .1 0 .2.1.3s.1.2.3.4z"/><path d="m131.6 72.2v-7h.8v.7c.2-.3.4-.5.6-.6s.5-.2.8-.2c.4 0 .8.1 1.1.3s.6.5.8.9.3.8.3 1.3-.1 1-.3 1.4-.5.7-.8 1c-.4.2-.7.3-1.1.3-.3 0-.5-.1-.8-.2-.2-.1-.4-.3-.6-.5v2.5h-.8zm.8-4.5c0 .7.1 1.1.4 1.4s.6.5 1 .5.7-.2 1-.5.4-.8.4-1.5c0-.6-.1-1.1-.4-1.5-.3-.3-.6-.5-1-.5s-.7.2-1 .5c-.3.5-.4 1-.4 1.6z"/><path d="m137 70.2v-5.1h.8v.8c.2-.4.4-.6.5-.7.2-.1.4-.2.6-.2.3 0 .6.1.9.3l-.3.8c-.2-.1-.4-.2-.6-.2s-.4.1-.5.2-.3.3-.3.5c-.1.3-.1.6-.1 1v2.7h-1z"/><path d="m140 67.7c0-.9.3-1.6.8-2.1.4-.4 1-.6 1.6-.6.7 0 1.3.2 1.7.7s.7 1.1.7 1.9c0 .7-.1 1.2-.3 1.5-.2.4-.5.7-.9.9s-.8.3-1.2.3c-.7 0-1.3-.2-1.7-.7-.5-.4-.7-1-.7-1.9zm.8 0c0 .7.1 1.1.4 1.5.3.3.6.5 1.1.5.4 0 .8-.2 1.1-.5s.4-.8.4-1.5c0-.6-.1-1.1-.4-1.4s-.6-.5-1.1-.5c-.4 0-.8.2-1.1.5-.2.3-.4.8-.4 1.4z"/><path d="m149 70.2v-.6c-.3.5-.8.8-1.4.8-.4 0-.8-.1-1.1-.3s-.6-.5-.8-.9-.3-.9-.3-1.4.1-1 .3-1.4.4-.7.8-.9c.3-.2.7-.3 1.1-.3.3 0 .6.1.8.2s.4.3.6.5v-2.5h.9v7h-.9zm-2.7-2.5c0 .7.1 1.1.4 1.5.3.3.6.5 1 .5s.7-.2 1-.5.4-.8.4-1.4c0-.7-.1-1.2-.4-1.5s-.6-.5-1-.5-.7.2-1 .5c-.3.2-.4.7-.4 1.4z"/><path d="m154.5 70.2v-.7c-.4.6-.9.9-1.6.9-.3 0-.6-.1-.8-.2-.3-.1-.5-.3-.6-.4-.1-.2-.2-.4-.3-.6 0-.2-.1-.4-.1-.8v-3.1h.9v2.7.9c.1.2.2.4.3.5.2.1.4.2.6.2.3 0 .5-.1.7-.2s.4-.3.5-.5.1-.6.1-1v-2.7h.9v5.1h-.6z"/><path d="m159.9 68.4.8.1c-.1.6-.3 1-.7 1.4-.4.3-.8.5-1.4.5-.7 0-1.3-.2-1.7-.7s-.6-1.1-.6-2c0-.5.1-1 .3-1.4s.5-.7.8-.9c.4-.2.8-.3 1.2-.3.5 0 1 .1 1.4.4.3.3.6.7.7 1.2l-.8.1c-.1-.3-.2-.6-.4-.8s-.4-.3-.7-.3c-.4 0-.8.2-1.1.5s-.4.8-.4 1.5.1 1.2.4 1.5.6.5 1 .5c.3 0 .6-.1.8-.3.2-.3.4-.6.4-1z"/><path d="m163.4 69.5.1.8c-.2.1-.5.1-.7.1-.3 0-.6-.1-.7-.1-.2-.1-.3-.2-.4-.4s-.1-.5-.1-1v-2.9h-.6v-.7h.6v-1.3l.9-.5v1.8h.9v.7h-.9v3 .5c0 .1.1.1.1.2.1 0 .2.1.3.1.2-.3.3-.3.5-.3z"/><path d="m164.2 64.2v-1h.9v1zm0 6v-5.1h.9v5.1z"/><path d="m166.1 67.7c0-.9.3-1.6.8-2.1.4-.4 1-.6 1.6-.6.7 0 1.3.2 1.7.7s.7 1.1.7 1.9c0 .7-.1 1.2-.3 1.5-.2.4-.5.7-.9.9s-.8.3-1.2.3c-.7 0-1.3-.2-1.7-.7-.5-.4-.7-1-.7-1.9zm.9 0c0 .7.1 1.1.4 1.5.3.3.6.5 1.1.5.4 0 .8-.2 1.1-.5s.4-.8.4-1.5c0-.6-.1-1.1-.4-1.4s-.6-.5-1.1-.5c-.4 0-.8.2-1.1.5s-.4.8-.4 1.4z"/><path d="m171.8 70.2v-5.1h.8v.7c.4-.6.9-.8 1.6-.8.3 0 .6.1.8.2.3.1.5.3.6.4.1.2.2.4.3.6v.8 3.1h-.9v-3.1c0-.4 0-.6-.1-.8s-.2-.3-.4-.4-.4-.2-.6-.2c-.4 0-.7.1-.9.3-.3.2-.4.7-.4 1.3v2.8h-.8z"/></g></svg>